<?xml version="1.0" encoding="UTF-8" standalone="no"?>
<!DOCTYPE svg PUBLIC "-//W3C//DTD SVG 1.1//EN" "http://www.w3.org/Graphics/SVG/1.1/DTD/svg11.dtd">
<svg width="100%" height="100%" viewBox="0 0 216 149" version="1.1" xmlns="http://www.w3.org/2000/svg" xmlns:xlink="http://www.w3.org/1999/xlink" xml:space="preserve" xmlns:serif="http://www.serif.com/" style="fill-rule:evenodd;clip-rule:evenodd;stroke-linejoin:round;stroke-miterlimit:2;">
    <g transform="matrix(1,0,0,1,-251.181,-181.713)">
        <path d="M357.985,182.845C358.61,182.22 359.623,182.22 360.248,182.845C366.808,189.404 399.663,222.26 399.663,222.26L399.667,222.256C399.667,222.256 451.738,274.819 465.653,288.866C466.55,289.772 467.055,291.001 467.055,292.282C467.055,293.564 466.55,294.793 465.653,295.699C458.15,303.273 440.159,321.434 432.25,329.418C432.249,329.419 432.247,329.42 432.246,329.422C431.625,330.049 430.686,330.238 429.87,329.902C429.054,329.566 428.522,328.77 428.522,327.888L428.522,283.997C428.522,283.401 428.288,282.83 427.871,282.409C427.454,281.988 426.888,281.752 426.298,281.752L377.35,281.752C377.35,281.752 359.684,281.726 358.758,281.725L340.885,281.751L291.937,281.751C291.347,281.751 290.782,281.988 290.365,282.409C289.948,282.829 289.713,283.4 289.713,283.996L289.713,327.887C289.713,328.769 289.181,329.565 288.365,329.901C287.549,330.237 286.611,330.048 285.989,329.421C285.988,329.419 285.987,329.418 285.985,329.417C278.076,321.433 260.086,303.272 252.582,295.698C251.685,294.792 251.181,293.563 251.181,292.281C251.181,291 251.685,289.771 252.582,288.865C266.497,274.819 318.568,222.255 318.568,222.255L318.572,222.259L357.985,182.845ZM389.176,304.465C389.176,302.331 390.906,300.601 393.04,300.601L406.931,300.601C407.526,300.601 408.097,300.837 408.518,301.258C408.939,301.679 409.176,302.25 409.176,302.846L409.176,316.811C409.176,317.816 408.777,318.78 408.066,319.491C407.355,320.202 406.391,320.601 405.386,320.601L392.872,320.601C391.892,320.601 390.952,320.211 390.258,319.518C389.565,318.825 389.176,317.885 389.176,316.905L389.176,304.465ZM329.059,304.464C329.059,302.33 327.329,300.6 325.195,300.6L311.304,300.6C310.709,300.6 310.138,300.836 309.717,301.257C309.296,301.678 309.059,302.249 309.059,302.845L309.059,316.81C309.059,317.815 309.459,318.779 310.17,319.49C310.88,320.201 311.844,320.6 312.85,320.6L325.363,320.6C326.344,320.6 327.284,320.211 327.977,319.517C328.67,318.824 329.059,317.884 329.059,316.904L329.059,304.464ZM334.235,260.146C333.597,260.145 333.02,259.764 332.768,259.177C332.516,258.591 332.637,257.91 333.076,257.447C339.059,251.12 353.832,235.498 358.07,231.017C358.37,230.699 358.788,230.518 359.226,230.516C359.664,230.514 360.083,230.692 360.386,231.008C364.682,235.481 379.724,251.144 385.853,257.527C386.301,257.993 386.427,258.683 386.173,259.278C385.919,259.872 385.333,260.258 384.686,260.256C374.154,260.233 344.656,260.169 334.235,260.146Z" style="fill:rgb(222,193,84);"/>
    </g>
</svg>
