<?xml version="1.0" encoding="UTF-8" standalone="no"?><!DOCTYPE svg PUBLIC "-//W3C//DTD SVG 1.1//EN" "http://www.w3.org/Graphics/SVG/1.1/DTD/svg11.dtd"><svg width="100%" height="100%" viewBox="0 0 900 900" version="1.1" xmlns="http://www.w3.org/2000/svg" xmlns:xlink="http://www.w3.org/1999/xlink" xml:space="preserve" xmlns:serif="http://www.serif.com/" style="fill-rule:evenodd;clip-rule:evenodd;stroke-linejoin:round;stroke-miterlimit:2;"><path d="M444.24,7.996c1.243,-1.809 3.298,-2.891 5.494,-2.891c2.196,0 4.251,1.082 5.495,2.891c29.053,42.282 163.45,237.871 163.45,237.871l0.015,-0.023c0,-0 216.962,318.734 274.941,403.909c3.74,5.494 5.841,12.946 5.841,20.716c-0,7.77 -2.101,15.222 -5.841,20.717c-31.263,45.928 -106.226,156.053 -139.179,204.465c-0.006,0.008 -0.012,0.017 -0.016,0.027c-2.59,3.799 -6.499,4.948 -9.899,2.909c-3.4,-2.039 -5.619,-6.862 -5.618,-12.214l-0,-266.146c0,-3.61 -0.976,-7.072 -2.714,-9.625c-1.737,-2.553 -4.094,-3.987 -6.551,-3.987l-203.953,0c0,0 -73.608,-0.156 -77.466,-0.164l-74.468,0.159l-203.953,-0c-2.457,-0 -4.814,1.434 -6.551,3.987c-1.738,2.552 -2.714,6.014 -2.714,9.624l-0,266.146c0.001,5.352 -2.218,10.175 -5.618,12.214c-3.4,2.039 -7.309,0.891 -9.899,-2.908c-0.004,-0.011 -0.01,-0.019 -0.016,-0.028c-32.953,-48.411 -107.916,-158.537 -139.179,-204.465c-3.74,-5.494 -5.841,-12.946 -5.841,-20.716c-0,-7.77 2.101,-15.222 5.841,-20.717c57.979,-85.175 274.941,-403.909 274.941,-403.909l0.015,0.023c0,0 134.391,-195.584 163.443,-237.865Zm130.74,736.348c0,-12.941 7.209,-23.432 16.102,-23.432l57.879,-0c2.48,-0 4.859,1.434 6.613,3.986c1.754,2.553 2.74,6.015 2.74,9.625l-0,84.682c-0,6.095 -1.664,11.941 -4.626,16.251c-2.961,4.31 -6.978,6.732 -11.167,6.732c-14.966,-0 -37.304,-0 -52.14,-0c-4.085,-0 -8.002,-2.361 -10.89,-6.565c-2.888,-4.203 -4.511,-9.903 -4.511,-15.847l0,-75.432Zm-250.485,-0.005c0,-12.942 -7.208,-23.433 -16.101,-23.433l-57.879,0c-2.48,0 -4.859,1.434 -6.613,3.987c-1.754,2.553 -2.74,6.015 -2.74,9.625l0,84.681c0,6.096 1.664,11.942 4.626,16.252c2.961,4.31 6.978,6.731 11.167,6.731c14.966,0 37.304,0 52.14,0c4.085,0 8.002,-2.361 10.89,-6.564c2.888,-4.203 4.51,-9.904 4.51,-15.848l0,-75.431Zm18.368,-268.749c-2.441,-0.007 -4.682,-1.348 -5.843,-3.495c-1.161,-2.147 -1.056,-4.757 0.274,-6.804c21.333,-32.83 87.672,-134.923 107.337,-165.184c1.225,-1.886 3.318,-3.027 5.566,-3.035c2.249,-0.007 4.35,1.119 5.588,2.995c19.959,30.246 87.521,132.631 109.404,165.793c1.364,2.067 1.481,4.717 0.304,6.895c-1.177,2.179 -3.457,3.534 -5.934,3.526c-41.696,-0.133 -175.44,-0.559 -216.696,-0.691Z" style="fill:#dec154;"/><path d="M349.733,733.798c0,-3.315 -1.317,-6.495 -3.661,-8.839c-2.344,-2.344 -5.524,-3.661 -8.839,-3.661c-23.95,-0 -76.05,-0 -100,-0c-3.315,-0 -6.495,1.317 -8.839,3.661c-2.344,2.344 -3.661,5.524 -3.661,8.839l0,100c0,3.315 1.317,6.495 3.661,8.839c2.344,2.344 5.524,3.661 8.839,3.661c23.95,-0 76.05,-0 100,-0c3.315,-0 6.495,-1.317 8.839,-3.661c2.344,-2.344 3.661,-5.524 3.661,-8.839l0,-100Z" style="fill:#dec154;"/><path d="M675.081,733.695c0,-3.315 -1.317,-6.495 -3.661,-8.839c-2.344,-2.344 -5.524,-3.661 -8.839,-3.661c-23.95,-0 -76.05,-0 -100,-0c-3.315,-0 -6.494,1.317 -8.839,3.661c-2.344,2.344 -3.661,5.524 -3.661,8.839c0,23.95 0,76.05 0,100c0,3.315 1.317,6.494 3.661,8.839c2.345,2.344 5.524,3.661 8.839,3.661l100,-0c3.315,-0 6.495,-1.317 8.839,-3.661c2.344,-2.345 3.661,-5.524 3.661,-8.839l0,-100Z" style="fill:#dec154;"/></svg>